<svg width="180" height="40" viewBox="0 0 180 40" fill="none" xmlns="http://www.w3.org/2000/svg">
  <path d="M20 0C17.3478 0 14.8043 1.05357 12.9289 2.92893C11.0536 4.8043 10 7.34784 10 10C10 12.6522 11.0536 15.1957 12.9289 17.0711C14.8043 18.9464 17.3478 20 20 20C22.6522 20 25.1957 18.9464 27.0711 17.0711C28.9464 15.1957 30 12.6522 30 10C30 7.34784 28.9464 4.8043 27.0711 2.92893C25.1957 1.05357 22.6522 0 20 0ZM20 5C21.3261 5 22.5979 5.52678 23.5355 6.46447C24.4732 7.40215 25 8.67392 25 10C25 11.3261 24.4732 12.5979 23.5355 13.5355C22.5979 14.4732 21.3261 15 20 15C18.6739 15 17.4021 14.4732 16.4645 13.5355C15.5268 12.5979 15 11.3261 15 10C15 8.67392 15.5268 7.40215 16.4645 6.46447C17.4021 5.52678 18.6739 5 20 5Z" fill="#E63946"/>
  <path d="M36 10H44V15H36V10Z" fill="#E63946"/>
  <path d="M10 30C10 25.0294 13.5817 21 18 21H22C26.4183 21 30 25.0294 30 30V38C30 39.1046 29.1046 40 28 40H12C10.8954 40 10 39.1046 10 38V30Z" fill="#E63946"/>
  <path d="M52.68 15.56C52.68 17.32 52.2 18.72 51.24 19.76C50.28 20.8 48.94 21.32 47.22 21.32C45.5 21.32 44.16 20.8 43.2 19.76C42.24 18.72 41.76 17.3 41.76 15.5V7.04H44.28V15.38C44.28 16.5 44.54 17.36 45.06 17.96C45.58 18.56 46.3 18.86 47.22 18.86C48.14 18.86 48.86 18.56 49.38 17.96C49.9 17.36 50.16 16.5 50.16 15.38V7.04H52.68V15.56Z" fill="white"/>
  <path d="M69.6798 7.04V21H67.2398L60.9198 11.78V21H58.3998V7.04H60.8398L67.1598 16.26V7.04H69.6798Z" fill="white"/>
  <path d="M78.5042 18.82H84.6642V21H76.0042V7.04H84.4042V9.22H78.5042V12.86H83.8242V15.02H78.5042V18.82Z" fill="white"/>
  <path d="M102.87 7.04L98.3296 21H95.4696L92.0896 10.94L88.6896 21H85.8496L81.3096 7.04H84.0296L87.2496 17.78L90.7696 7.04H93.5296L96.9896 17.84L100.27 7.04H102.87Z" fill="white"/>
  <path d="M110.335 21.32C108.775 21.32 107.415 20.94 106.255 20.18C105.095 19.42 104.275 18.36 103.795 17L106.095 16.02C106.455 16.94 106.995 17.68 107.715 18.24C108.435 18.8 109.295 19.08 110.295 19.08C111.095 19.08 111.735 18.9 112.215 18.54C112.695 18.18 112.935 17.7 112.935 17.1C112.935 16.58 112.755 16.16 112.395 15.84C112.035 15.52 111.415 15.24 110.535 15L108.495 14.42C107.095 14.02 106.055 13.44 105.375 12.68C104.695 11.92 104.355 11 104.355 9.92C104.355 8.56 104.855 7.48 105.855 6.68C106.855 5.88 108.115 5.48 109.635 5.48C110.955 5.48 112.095 5.78 113.055 6.38C114.015 6.98 114.735 7.78 115.215 8.78L113.015 9.8C112.695 9.12 112.235 8.58 111.635 8.18C111.035 7.78 110.335 7.58 109.535 7.58C108.815 7.58 108.235 7.76 107.795 8.12C107.355 8.48 107.135 8.94 107.135 9.5C107.135 9.98 107.295 10.38 107.615 10.7C107.935 11.02 108.475 11.28 109.235 11.48L111.275 12.06C112.835 12.5 113.955 13.1 114.635 13.86C115.315 14.62 115.655 15.56 115.655 16.68C115.655 18.12 115.115 19.26 114.035 20.1C112.955 20.92 111.555 21.32 109.835 21.32H110.335Z" fill="white"/>
  <path d="M132.168 7.04V21H129.648V14.9H122.968V21H120.448V7.04H122.968V12.7H129.648V7.04H132.168Z" fill="white"/>
  <path d="M149.271 7.04V9.22H145.211V21H142.691V9.22H138.631V7.04H149.271Z" fill="white"/>
  <path d="M157.316 21.32C155.756 21.32 154.396 20.94 153.236 20.18C152.076 19.42 151.256 18.36 150.776 17L153.076 16.02C153.436 16.94 153.976 17.68 154.696 18.24C155.416 18.8 156.276 19.08 157.276 19.08C158.076 19.08 158.716 18.9 159.196 18.54C159.676 18.18 159.916 17.7 159.916 17.1C159.916 16.58 159.736 16.16 159.376 15.84C159.016 15.52 158.396 15.24 157.516 15L155.476 14.42C154.076 14.02 153.036 13.44 152.356 12.68C151.676 11.92 151.336 11 151.336 9.92C151.336 8.56 151.836 7.48 152.836 6.68C153.836 5.88 155.096 5.48 156.616 5.48C157.936 5.48 159.076 5.78 160.036 6.38C160.996 6.98 161.716 7.78 162.196 8.78L159.996 9.8C159.676 9.12 159.216 8.58 158.616 8.18C158.016 7.78 157.316 7.58 156.516 7.58C155.796 7.58 155.216 7.76 154.776 8.12C154.336 8.48 154.116 8.94 154.116 9.5C154.116 9.98 154.276 10.38 154.596 10.7C154.916 11.02 155.456 11.28 156.216 11.48L158.256 12.06C159.816 12.5 160.936 13.1 161.616 13.86C162.296 14.62 162.636 15.56 162.636 16.68C162.636 18.12 162.096 19.26 161.016 20.1C159.936 20.92 158.536 21.32 156.816 21.32H157.316Z" fill="white"/>
  <path d="M170.461 7.04C172.101 7.04 173.401 7.5 174.361 8.42C175.321 9.34 175.801 10.66 175.801 12.38C175.801 14.1 175.321 15.42 174.361 16.34C173.401 17.26 172.101 17.72 170.461 17.72H167.701V21H165.181V7.04H170.461ZM170.201 15.56C171.121 15.56 171.821 15.32 172.301 14.84C172.781 14.36 173.021 13.58 173.021 12.5C173.021 11.42 172.781 10.64 172.301 10.16C171.821 9.68 171.121 9.44 170.201 9.44H167.701V15.56H170.201Z" fill="white"/>
  <path d="M178.284 7.04H180.804V21H178.284V7.04Z" fill="white"/>
</svg>